<svg xmlns="http://www.w3.org/2000/svg" viewBox="0 0 448 512">
  <path fill="currentColor" d="M224,202.66A53.34,53.34,0,1,0,277.34,256,53.38,53.38,0,0,0,224,202.66Zm124.71-41a54,54,0,0,0-30.6-30.6c-21.13-8.42-71.2-6.49-94.11-6.49s-73-.19-94.11,6.49a54,54,0,0,0-30.6,30.6c-8.42,21.13-6.49,71.2-6.49,94.11s-.19,73,6.49,94.11a54,54,0,0,0,30.6,30.6c21.13,8.42,71.2,6.49,94.11,6.49s73,.19,94.11-6.49a54,54,0,0,0,30.6-30.6c8.42-21.13,6.49-71.2,6.49-94.11S357.13,182.79,348.71,161.66ZM224,338a82,82,0,1,1,82-82A82,82,0,0,1,224,338Zm85-148a19,19,0,1,1,19-19A19,19,0,0,1,309,190Z"/>
</svg>
